<?xml version="1.0" encoding="UTF-8" standalone="no"?>
<svg
   xmlns:dc="http://purl.org/dc/elements/1.1/"
   xmlns:cc="http://creativecommons.org/ns#"
   xmlns:rdf="http://www.w3.org/1999/02/22-rdf-syntax-ns#"
   xmlns:svg="http://www.w3.org/2000/svg"
   xmlns="http://www.w3.org/2000/svg"
   xmlns:sodipodi="http://sodipodi.sourceforge.net/DTD/sodipodi-0.dtd"
   xmlns:inkscape="http://www.inkscape.org/namespaces/inkscape"
   version="1.0"
   width="1200"
   height="900"
   viewBox="0 0 468 518"
   preserveAspectRatio="xMidYMid meet"
   id="svg2"
   sodipodi:version="0.32"
   inkscape:version="0.46"
   sodipodi:docname="finalshut.svg"
   inkscape:output_extension="org.inkscape.output.svg.inkscape">
  <defs
     id="defs13">
    <inkscape:perspective
       sodipodi:type="inkscape:persp3d"
       inkscape:vp_x="0 : 323.75 : 1"
       inkscape:vp_y="0 : 1000 : 0"
       inkscape:vp_z="585 : 323.75 : 1"
       inkscape:persp3d-origin="292.5 : 215.83333 : 1"
       id="perspective15" />
    <inkscape:perspective
       id="perspective5292"
       inkscape:persp3d-origin="292.5 : 191.25 : 1"
       inkscape:vp_z="585 : 286.875 : 1"
       inkscape:vp_y="0 : 1000 : 0"
       inkscape:vp_x="0 : 286.875 : 1"
       sodipodi:type="inkscape:persp3d" />
  </defs>
  <sodipodi:namedview
     inkscape:window-height="796"
     inkscape:window-width="1200"
     inkscape:pageshadow="2"
     inkscape:pageopacity="0.0"
     guidetolerance="10000"
     gridtolerance="10000"
     objecttolerance="10000"
     borderopacity="1.0"
     bordercolor="#666666"
     pagecolor="#ffffff"
     id="base"
     showgrid="true"
     showguides="true"
     inkscape:snap-global="false"
     inkscape:object-nodes="true"
     inkscape:snap-intersection-grid-guide="false"
     inkscape:snap-intersection-line-segments="false"
     inkscape:snap-center="true"
     inkscape:snap-nodes="false"
     inkscape:snap-bbox="true"
     inkscape:zoom="0.50889847"
     inkscape:cx="544.9993"
     inkscape:cy="419.42693"
     inkscape:window-x="48"
     inkscape:window-y="54"
     inkscape:current-layer="svg2">
    <inkscape:grid
       type="xygrid"
       id="grid6247"
       visible="true"
       enabled="true" />
  </sodipodi:namedview>
  <metadata
     id="metadata4">
Created by potrace 1.8, written by Peter Selinger 2001-2007
<rdf:RDF>
  <cc:Work
     rdf:about="">
    <dc:format>image/svg+xml</dc:format>
    <dc:type
       rdf:resource="http://purl.org/dc/dcmitype/StillImage" />
  </cc:Work>
</rdf:RDF>
</metadata>
  <path
     style="fill:#000000;fill-opacity:1;fill-rule:evenodd;stroke:none;stroke-width:0.44999999;stroke-linecap:round;stroke-linejoin:round;stroke-miterlimit:4;stroke-dasharray:none;stroke-dashoffset:0;stroke-opacity:1"
     d="M 345.7595,-136.99652 C 337.28512,-136.99652 330.40722,-130.05545 330.40722,-121.50076 C 330.40722,-112.94604 337.28512,-106.00036 345.7595,-106.00036 C 350.96376,-106.00036 355.56259,-108.62137 358.3394,-112.62355 C 349.93503,-112.70611 343.13985,-119.61589 343.13985,-128.11931 C 343.13985,-131.42014 344.16306,-134.48185 345.90761,-136.99652 C 345.85788,-136.99701 345.80934,-136.99652 345.7595,-136.99652 z"
     id="path4060" />
  <g
     id="g5373"
     transform="translate(118.75322,-203.57696)">
    <path
       transform="matrix(0.2950558,0,0,0.2950558,320.76269,-8.3345273)"
       d="M 117.38825,345.25923 L 88.962668,373.89836 L 48.611828,374.04936 L 19.9727,345.62378 L 19.821699,305.27294 L 48.247277,276.63381 L 88.598118,276.48281 L 117.23725,304.90839 L 117.38825,345.25923 z"
       inkscape:randomized="0"
       inkscape:rounded="0"
       inkscape:flatsided="true"
       sodipodi:arg2="0.78165596"
       sodipodi:arg1="0.38895688"
       sodipodi:r2="48.708115"
       sodipodi:r1="52.721283"
       sodipodi:cy="325.26608"
       sodipodi:cx="68.604973"
       sodipodi:sides="8"
       id="path4836"
       style="fill:none;fill-opacity:1;stroke:#000000;stroke-width:0.19506668;stroke-linejoin:round;stroke-miterlimit:4;stroke-dasharray:none;stroke-opacity:1"
       sodipodi:type="star" />
    <g
       id="g4842"
       transform="matrix(1.1249002,0,0,1.1249002,306.37418,-21.506246)">
      <rect
         style="fill:none;fill-rule:evenodd;stroke:#000000;stroke-width:9.53198147;stroke-linecap:butt;stroke-linejoin:round;stroke-miterlimit:4;stroke-dasharray:none;stroke-opacity:1"
         id="rect4844"
         width="64.801865"
         height="46.901131"
         x="-2.2329912"
         y="73.767273" />
      <rect
         style="fill:#000000;fill-opacity:1;fill-rule:evenodd;stroke:#000000;stroke-width:9.38441658;stroke-linecap:butt;stroke-linejoin:round;stroke-miterlimit:4;stroke-dasharray:none;stroke-opacity:1"
         id="rect4846"
         width="66.413025"
         height="39.832989"
         x="-136.22847"
         y="180.87917"
         inkscape:transform-center-x="-82.797309"
         inkscape:transform-center-y="32.580841"
         transform="matrix(0.9999997,8.1670249e-4,0.740011,0.6725947,0,0)" />
    </g>
    <rect
       ry="0"
       rx="0"
       y="82.372955"
       x="336.27148"
       height="9.6385288"
       width="9.627018"
       id="rect5359"
       style="fill:#ffffff;fill-opacity:1;stroke:none;stroke-width:0.16778685;stroke-linecap:butt;stroke-linejoin:miter;stroke-miterlimit:4;stroke-dasharray:none;stroke-opacity:1" />
    <path
       transform="matrix(0.5755556,0,0,0.5755556,-111.33333,0)"
       id="path5369"
       d="M 768.40342,169.72446 L 761.19856,162.51347 L 761.19856,152.26596 L 761.19856,142.01843 L 768.40955,134.81357 L 775.62054,127.60873 L 785.86496,127.62392 L 796.10937,127.6391 L 803.27577,134.67802 L 810.44217,141.71694 L 810.57057,151.99998 L 810.69897,162.28303 L 803.46773,169.60923 L 796.23652,176.93544 L 785.92239,176.93544 L 775.60826,176.93544 L 768.40342,169.72446 z M 794.8128,151.4905 L 794.9057,142.89306 L 786.21536,142.89306 L 777.52501,142.89306 L 777.52501,151.58341 L 777.52501,160.27376 L 786.12245,160.18085 L 794.71989,160.08794 L 794.8128,151.4905 z"
       style="fill:#000000;fill-opacity:1;stroke:none;stroke-width:0.10421138;stroke-linecap:butt;stroke-linejoin:miter;stroke-miterlimit:4;stroke-dasharray:none;stroke-opacity:1" />
  </g>
  <g
     id="g6205"
     transform="matrix(2.2561866,0,0,2.2561866,-759.11913,-549.95044)">
    <rect
       y="387.77451"
       x="687.43878"
       height="52.75909"
       width="72.89563"
       id="rect6207"
       style="fill:#000000;fill-opacity:1;fill-rule:evenodd;stroke:#000000;stroke-width:10.7225275;stroke-linecap:butt;stroke-linejoin:round;stroke-miterlimit:4;stroke-dasharray:none;stroke-opacity:1" />
    <rect
       transform="matrix(0.9999997,8.1670243e-4,0.740011,0.6725947,0,0)"
       inkscape:transform-center-y="32.580841"
       inkscape:transform-center-x="-82.797309"
       y="656.20099"
       x="201.68219"
       height="44.808132"
       width="74.708031"
       id="rect6209"
       style="fill:#000000;fill-opacity:1;fill-rule:evenodd;stroke:#000000;stroke-width:10.55653191;stroke-linecap:butt;stroke-linejoin:round;stroke-miterlimit:4;stroke-dasharray:none;stroke-opacity:1" />
    <path
       id="path6211"
       d="M 713.70235,421.58661 L 709.55555,417.43629 L 709.55555,411.53828 L 709.55555,405.64025 L 713.70588,401.49346 L 717.85621,397.34667 L 723.75244,397.35541 L 729.64867,397.36415 L 733.77333,401.41544 L 737.89799,405.46673 L 737.97189,411.38519 L 738.04579,417.30366 L 733.88381,421.52029 L 729.72185,425.73693 L 723.78549,425.73693 L 717.84914,425.73693 L 713.70235,421.58661 z M 728.90242,411.09196 L 728.95589,406.14365 L 723.95411,406.14365 L 718.95233,406.14365 L 718.95233,411.14543 L 718.95233,416.14721 L 723.90064,416.09374 L 728.84894,416.04026 L 728.90242,411.09196 z"
       style="fill:#ffffff;fill-opacity:1;stroke:none;stroke-width:0.10421138;stroke-linecap:butt;stroke-linejoin:miter;stroke-miterlimit:4;stroke-dasharray:none;stroke-opacity:1" />
    <rect
       y="390.21057"
       x="690.55847"
       height="42.851841"
       width="66.84362"
       id="rect6213"
       style="fill:none;fill-opacity:1;stroke:#ffffff;stroke-width:2.58587718;stroke-linecap:butt;stroke-linejoin:miter;stroke-miterlimit:4;stroke-dasharray:none;stroke-opacity:1" />
  </g>
  <g
     id="g6249"
     transform="matrix(1.1749033,0,0,1.1749033,-41.991293,-39.280412)">
    <rect
       y="147.02795"
       x="137.47334"
       height="180.9765"
       width="186.63142"
       id="rect6229"
       style="fill:#000000;fill-opacity:1;stroke:#000000;stroke-width:0.08079167;stroke-linecap:butt;stroke-linejoin:miter;stroke-miterlimit:4;stroke-dasharray:none;stroke-opacity:1" />
    <path
       transform="translate(-82.561763,-62.204067)"
       d="M 341.05989,374.36516 L 279.33404,374.09478 L 235.87846,330.25682 L 236.14885,268.53097 L 279.9868,225.07539 L 341.71265,225.34578 L 385.16823,269.18373 L 384.89785,330.90958 L 341.05989,374.36516 z"
       inkscape:randomized="0"
       inkscape:rounded="0"
       inkscape:flatsided="true"
       sodipodi:arg2="1.5751767"
       sodipodi:arg1="1.1824776"
       sodipodi:r2="72.467621"
       sodipodi:r1="80.649483"
       sodipodi:cy="299.72028"
       sodipodi:cx="310.52335"
       sodipodi:sides="8"
       id="path6239"
       style="fill:#ffffff;fill-opacity:1;stroke:#000000;stroke-width:0.1;stroke-linecap:butt;stroke-linejoin:miter;stroke-miterlimit:4;stroke-dasharray:none;stroke-opacity:1"
       sodipodi:type="star" />
    <rect
       y="210.37262"
       x="205.34192"
       height="50.894238"
       width="50.894238"
       id="rect6245"
       style="fill:#000000;fill-opacity:1;stroke:#000000;stroke-width:0.1;stroke-linecap:butt;stroke-linejoin:miter;stroke-miterlimit:4;stroke-dasharray:none;stroke-opacity:1" />
  </g>
</svg>
